<?xml version="1.0" standalone="no"?>
<!DOCTYPE svg PUBLIC "-//W3C//DTD SVG 20010904//EN"
 "http://www.w3.org/TR/2001/REC-SVG-20010904/DTD/svg10.dtd">
<svg version="1.0" xmlns="http://www.w3.org/2000/svg"
 width="229.000000pt" height="229.000000pt" viewBox="0 0 229.000000 229.000000"
 preserveAspectRatio="xMidYMid meet">
<metadata>
Created by potrace 1.14, written by Peter Selinger 2001-2017
</metadata>
<g transform="translate(0.000000,229.000000) scale(0.100000,-0.100000)"
fill="#000000" stroke="none">
<path d="M1054 1884 c0 -373 -1 -383 -36 -384 -5 0 -8 109 -9 243 -1 133 -2
256 -4 272 -1 17 -3 38 -4 48 -1 20 -53 24 -68 5 -6 -8 -9 -133 -9 -313 l1
-300 -39 -35 -39 -35 -306 -1 c-168 0 -316 -4 -327 -8 -12 -3 -24 -16 -27 -27
-11 -42 4 -45 312 -44 287 0 292 0 289 -20 -3 -20 -10 -20 -328 -21 -433 -2
-424 -2 -445 -17 -13 -10 -16 -21 -11 -40 l6 -27 372 1 c373 0 387 -1 388 -34
0 -4 -162 -7 -359 -7 -198 1 -371 -2 -385 -6 -35 -9 -38 -61 -3 -68 12 -3 182
-5 377 -5 195 0 360 0 366 0 7 -1 14 -10 17 -20 5 -19 -4 -20 -269 -20 -151 0
-285 -3 -299 -7 -28 -7 -35 -43 -12 -62 9 -8 114 -11 321 -11 l307 1 41 -40
40 -41 -1 -285 c-1 -302 3 -336 43 -336 51 1 51 -1 50 293 -1 250 0 274 15
270 15 -4 16 -38 16 -355 0 -221 4 -359 10 -372 13 -27 48 -32 69 -11 14 15
16 57 16 371 0 330 4 379 26 343 4 -6 8 -165 9 -353 1 -187 5 -348 8 -356 9
-19 46 -23 64 -8 10 8 13 88 13 372 0 349 1 362 19 363 18 2 19 -8 17 -245 -1
-136 2 -259 7 -275 5 -15 18 -32 30 -39 17 -9 24 -7 37 10 15 18 17 53 16 307
-1 158 1 290 4 293 3 4 24 25 47 46 l42 39 304 1 c323 1 340 4 332 48 -3 12
-9 24 -14 27 -5 4 -136 6 -290 6 -181 0 -281 4 -281 10 1 33 13 34 375 32 198
-2 368 -1 378 1 14 4 17 13 15 41 l-3 36 -372 0 c-349 0 -373 1 -373 17 0 17
25 18 373 20 l372 3 0 40 0 40 -375 1 c-206 1 -378 2 -382 3 -5 0 -8 8 -8 16
0 12 17 15 88 15 319 2 484 8 494 18 8 8 7 19 -2 42 l-13 30 -312 0 -312 -1
-39 38 -39 38 0 302 c0 218 -3 305 -12 314 -19 19 -62 2 -70 -29 -4 -15 -7
-142 -6 -283 0 -244 -1 -256 -19 -251 -17 4 -18 24 -18 373 l0 369 -45 0 -45
0 0 -360 c0 -233 -4 -360 -10 -360 -5 0 -13 0 -17 0 -4 0 -8 154 -9 342 -1
189 -2 351 -3 361 -1 13 -10 17 -39 17 l-38 0 0 -366z"/>
</g>
</svg>
