<?xml version="1.0" standalone="no"?>
<!DOCTYPE svg PUBLIC "-//W3C//DTD SVG 20010904//EN"
 "http://www.w3.org/TR/2001/REC-SVG-20010904/DTD/svg10.dtd">
<svg version="1.0" xmlns="http://www.w3.org/2000/svg"
 width="241.000000pt" height="241.000000pt" viewBox="0 0 241.000000 241.000000"
 preserveAspectRatio="xMidYMid meet">
<metadata>
Created by potrace 1.14, written by Peter Selinger 2001-2017
</metadata>
<g transform="translate(0.000000,241.000000) scale(0.100000,-0.100000)"
fill="#000000" stroke="none">
<path d="M1116 2395 c-3 -9 -6 -194 -6 -410 l0 -393 -37 -15 -38 -15 -5 331
c-5 309 -6 332 -23 335 -41 8 -42 -2 -41 -362 l0 -346 -27 -30 -28 -30 -363
-2 c-344 -3 -363 -4 -366 -22 -2 -10 0 -22 6 -28 6 -6 142 -9 346 -9 l336 1
-13 -32 -13 -33 -410 0 c-225 0 -415 -4 -421 -8 -18 -11 -16 -44 3 -51 9 -3
195 -6 414 -6 l399 0 -3 -37 -2 -38 -400 0 c-219 -1 -405 -4 -412 -8 -10 -7
-17 -42 -9 -49 1 -1 188 -5 416 -8 l414 -5 13 -37 13 -38 -337 -2 -337 -3 -3
-27 c-2 -16 0 -29 5 -29 4 -1 166 -2 359 -3 l350 -2 32 -34 c17 -19 32 -44 32
-55 1 -11 1 -168 1 -350 0 -181 2 -338 5 -347 6 -21 50 -25 56 -5 3 6 4 159 4
340 -1 180 3 327 7 327 4 0 23 -6 41 -14 l34 -14 1 -408 c0 -241 4 -411 10
-417 5 -5 18 -6 30 -2 21 6 21 9 21 411 l0 404 39 0 39 0 0 -401 c-1 -261 3
-404 10 -411 5 -5 19 -7 31 -3 21 6 21 9 21 420 l0 413 29 10 c22 8 30 7 33
-1 2 -7 3 -151 2 -322 -1 -171 0 -318 3 -327 2 -11 14 -18 28 -18 14 0 26 7
29 18 2 9 4 171 4 359 l0 342 37 38 37 38 345 1 c324 1 347 2 359 19 31 42 12
45 -337 45 l-328 0 11 33 c6 17 14 36 18 40 4 5 187 10 405 10 372 2 399 3
409 20 24 40 -1 43 -404 42 -210 0 -386 2 -390 5 -7 5 -14 42 -11 65 1 6 141
10 397 10 372 0 398 1 408 18 25 41 0 44 -419 44 -221 0 -400 4 -404 9 -5 5
-12 19 -16 31 l-6 23 333 2 c315 3 333 4 336 22 2 10 -1 23 -7 29 -8 8 -119
11 -356 12 l-344 0 -35 34 -36 35 -2 350 c-3 333 -4 351 -22 354 -10 2 -23 -1
-28 -6 -7 -7 -10 -130 -10 -336 l0 -325 -31 13 -32 12 0 402 c0 286 -4 405
-12 413 -6 6 -20 8 -32 4 -21 -6 -21 -9 -21 -406 l0 -399 -38 0 -38 0 1 378
c0 207 -2 388 -5 402 -7 29 -44 39 -54 15z m209 -884 c103 -45 166 -124 189
-234 40 -190 -93 -373 -284 -390 -50 -5 -144 19 -188 47 -50 31 -100 89 -126
145 -16 36 -21 66 -21 136 0 78 4 97 27 142 81 153 255 220 403 154z"/>
</g>
</svg>
